# File created by Blade
# Date/Time:  Thu Jan 22 16:25:48 2015
# Frame Rate: 120.000 fps
#------------------------------------------------------
:FULLY-SPECIFIED
:DEGREES
320
root -0.930456 38.841966 10.269467 24.588043 12.517789 30.131096
RightUpLeg -18.834315 -3.524441 -25.316903
RightLeg 10.898832 -0.000000 -0.000000
RightFoot -14.885502 -14.855949 12.236854
RightToeBase 7.723359 -0.000000 -0.000000
LeftUpLeg 2.144802 -20.609275 16.319554
LeftLeg 134.424581 -0.000000 -0.000000
LeftFoot 18.967115 6.539701 -29.709592
LeftToeBase -0.076246 -0.000000 0.000000
Spine 9.841919 8.419161 -17.018954
RightShoulder 0.946363 -16.977009 -23.948889
RightArm 22.443266 0.437566 43.113619
RightForeArm 9.632282 -0.000000 50.845605
RightHand 4.330500 -0.000000 -7.290611
RightHandThumb1 -24.326973 -0.000000 -32.862282
LeftShoulder -33.879761 37.897497 -17.340939
LeftArm 31.102279 -8.481364 -61.532391
LeftForeArm 30.716966 -0.000000 12.348898
LeftHand -9.497228 -0.000000 -24.419263
LeftHandThumb1 -26.253704 0.000000 33.147579
Head 6.459169 5.546321 -19.571412
321
root -0.918684 38.855832 10.228193 24.990728 12.584186 30.324224
RightUpLeg -19.050796 -3.337862 -25.582394
RightLeg 10.735354 -0.000000 -0.000000
RightFoot -14.707754 -15.422306 11.905560
RightToeBase 7.107735 -0.000000 -0.000000
LeftUpLeg 2.276182 -21.023832 16.109437
LeftLeg 134.170638 -0.000000 -0.000000
LeftFoot 18.861385 6.832476 -29.936773
LeftToeBase 0.313814 -0.000000 -0.000000
Spine 9.830252 8.304004 -17.033230
RightShoulder 0.880554 -16.759320 -24.149909
RightArm 22.440727 1.552120 42.588189
RightForeArm 9.708298 -0.000000 50.538443
RightHand 4.443548 -0.000000 -7.600783
RightHandThumb1 -24.326973 -0.000000 -32.862282
LeftShoulder -33.924454 37.903462 -17.441559
LeftArm 31.143603 -8.937640 -61.607668
LeftForeArm 31.268763 -0.000000 12.327431
LeftHand -9.518267 0.000000 -23.831351
LeftHandThumb1 -26.253704 0.000000 33.147579
Head 6.250816 5.072929 -19.565124
322
root -0.904613 38.867580 10.185985 25.395567 12.667168 30.529209
RightUpLeg -19.267120 -3.154499 -25.861513
RightLeg 10.599586 -0.000000 -0.000000
RightFoot -14.701042 -15.974360 11.758478
RightToeBase 6.886657 -0.000000 -0.000000
LeftUpLeg 2.438315 -21.474744 15.908265
LeftLeg 133.906821 -0.000000 -0.000000
LeftFoot 18.703273 7.155246 -29.951076
LeftToeBase -0.050705 -0.000000 0.000000
Spine 9.821586 8.167603 -17.056725
RightShoulder 0.885067 -16.614967 -24.383723
RightArm 22.411527 2.782924 42.084920
RightForeArm 9.533459 -0.000000 50.204981
RightHand 4.446704 0.000000 -7.967370
RightHandThumb1 -24.326973 -0.000000 -32.862282
LeftShoulder -33.922002 37.831986 -17.441102
LeftArm 31.088539 -9.462458 -61.775118
LeftForeArm 32.074061 -0.000000 12.391184
LeftHand -9.606212 0.000000 -23.275030
LeftHandThumb1 -26.253704 0.000000 33.147579
Head 6.066729 4.585200 -19.531337
323
root -0.892626 38.878441 10.144732 25.777385 12.746554 30.715629
RightUpLeg -19.491197 -2.958947 -26.126820
RightLeg 10.512753 -0.000000 -0.000000
RightFoot -14.664021 -16.492593 11.550897
RightToeBase 6.488749 -0.000000 -0.000000
LeftUpLeg 2.636527 -21.971488 15.701947
LeftLeg 133.665720 -0.000000 -0.000000
LeftFoot 18.567436 7.440711 -29.967647
LeftToeBase 0.238237 -0.000000 -0.000000
Spine 9.847907 8.054516 -17.065594
RightShoulder 0.851889 -16.528281 -24.605892
RightArm 22.432804 3.997573 41.506843
RightForeArm 9.577178 -0.000000 49.857636
RightHand 4.393974 0.000000 -8.303372
RightHandThumb1 -24.326973 -0.000000 -32.862282
LeftShoulder -34.025916 37.797054 -17.539871
LeftArm 31.207146 -10.019804 -61.924809
LeftForeArm 33.050383 0.000000 12.444946
LeftHand -9.654961 -0.000000 -22.976273
LeftHandThumb1 -26.253704 0.000000 33.147579
Head 5.872605 4.107469 -19.468445
